<svg width="73" height="80" viewBox="0 0 73 80" fill="none" xmlns="http://www.w3.org/2000/svg">
<g filter="url(#filter0_d_1_3)">
<path d="M64 27.3397C70.6666 31.1887 70.6667 40.8113 64 44.6603L19 70.641C12.3333 74.49 3.99998 69.6788 3.99998 61.9808L3.99998 10.0192C3.99998 2.32124 12.3333 -2.49002 19 1.35898L64 27.3397Z" fill="url(#paint0_linear_1_3)" shape-rendering="crispEdges"/>
<path d="M63.75 44.2272L18.75 70.208C12.4167 73.8646 4.49998 69.2939 4.49998 61.9808L4.49998 10.0192C4.49998 2.70614 12.4166 -1.86455 18.75 1.792L63.75 27.7728C70.0833 31.4293 70.0833 40.5707 63.75 44.2272Z" stroke="#05173A" shape-rendering="crispEdges"/>
</g>
<defs>
<filter id="filter0_d_1_3" x="-1.52588e-05" y="0.00431824" width="73" height="79.9914" filterUnits="userSpaceOnUse" color-interpolation-filters="sRGB">
<feFlood flood-opacity="0" result="BackgroundImageFix"/>
<feColorMatrix in="SourceAlpha" type="matrix" values="0 0 0 0 0 0 0 0 0 0 0 0 0 0 0 0 0 0 127 0" result="hardAlpha"/>
<feOffset dy="4"/>
<feGaussianBlur stdDeviation="2"/>
<feComposite in2="hardAlpha" operator="out"/>
<feColorMatrix type="matrix" values="0 0 0 0 0 0 0 0 0 0 0 0 0 0 0 0 0 0 0.25 0"/>
<feBlend mode="normal" in2="BackgroundImageFix" result="effect1_dropShadow_1_3"/>
<feBlend mode="normal" in="SourceGraphic" in2="effect1_dropShadow_1_3" result="shape"/>
</filter>
<linearGradient id="paint0_linear_1_3" x1="79" y1="36" x2="-21" y2="36" gradientUnits="userSpaceOnUse">
<stop offset="0.378472" stop-color="#F64F59"/>
<stop offset="0.685764" stop-color="#C471ED" stop-opacity="0.579861"/>
<stop offset="0.878472" stop-color="#F64F59" stop-opacity="0.273204"/>
<stop offset="0.982639" stop-color="#F64F59" stop-opacity="0"/>
</linearGradient>
</defs>
</svg>
